# Blender v2.79 (sub 0) OBJ File: ''
# www.blender.org
o Circle
v 0.000000 0.000000 -1.000000
v -0.500000 0.000000 -0.866025
v -0.866025 0.000000 -0.500000
v -1.000000 0.000000 0.000000
v -0.866025 0.000000 0.500000
v -0.500000 0.000000 0.866025
v -0.000000 0.000000 1.000000
v 0.500000 0.000000 0.866026
v 0.866025 0.000000 0.500000
v 1.000000 0.000000 0.000000
v 0.866026 0.000000 -0.499999
v 0.500001 0.000000 -0.866025
v 0.000000 3.000000 -1.000000
v -0.500000 3.000000 -0.866025
v -0.866025 3.000000 -0.500000
v -1.000000 3.000000 0.000000
v -0.866025 3.000000 0.500000
v -0.500000 3.000000 0.866025
v -0.000000 3.000000 1.000000
v 0.500000 3.000000 0.866026
v 0.866025 3.000000 0.500000
v 1.000000 3.000000 0.000000
v 0.866026 3.000000 -0.499999
v 0.500001 3.000000 -0.866025
v -0.000000 3.000000 -4.000000
v -2.000000 3.000000 -3.464102
v -3.464102 3.000000 -2.000000
v -4.000000 3.000000 -0.000000
v -3.464102 3.000000 2.000000
v -2.000000 3.000000 3.464101
v -0.000001 3.000000 4.000000
v 1.999999 3.000000 3.464102
v 3.464101 3.000000 2.000001
v 4.000000 3.000000 0.000001
v 3.464103 3.000000 -1.999998
v 2.000002 3.000000 -3.464100
v 0.000000 5.000000 -1.000000
v -0.500000 5.000000 -0.866025
v -0.866025 5.000000 -0.500000
v -1.000000 5.000000 0.000000
v -0.866025 5.000000 0.500000
v -0.500000 5.000000 0.866025
v -0.000000 5.000000 1.000000
v 0.500000 5.000000 0.866026
v 0.866025 5.000000 0.500000
v 1.000000 5.000000 0.000001
v 0.866026 5.000000 -0.499999
v 0.500001 5.000000 -0.866025
v -0.000000 5.000000 -3.000000
v -1.500000 5.000000 -2.598076
v -2.598077 5.000000 -1.500000
v -3.000000 5.000000 -0.000000
v -2.598076 5.000000 1.500000
v -1.500000 5.000000 2.598076
v -0.000001 5.000000 3.000000
v 1.500000 5.000000 2.598076
v 2.598075 5.000000 1.500001
v 3.000000 5.000000 0.000001
v 2.598077 5.000000 -1.499999
v 1.500002 5.000000 -2.598076
v -0.000000 6.500000 -1.000000
v -0.500000 6.500000 -0.866025
v -0.866026 6.500000 -0.500000
v -1.000000 6.500000 0.000000
v -0.866025 6.500000 0.500000
v -0.500000 6.500000 0.866025
v -0.000000 6.500000 1.000000
v 0.500000 6.500000 0.866026
v 0.866025 6.500000 0.500000
v 1.000000 6.500000 0.000001
v 0.866026 6.500000 -0.500000
v 0.500001 6.500000 -0.866025
v -0.000000 6.500000 -2.000000
v -1.000000 6.500000 -1.732051
v -1.732051 6.500000 -1.000000
v -2.000000 6.500000 0.000000
v -1.732051 6.500000 1.000000
v -1.000000 6.500000 1.732051
v -0.000000 6.500000 2.000000
v 1.000000 6.500000 1.732051
v 1.732050 6.500000 1.000001
v 2.000000 6.500000 0.000001
v 1.732051 6.500000 -0.999999
v 1.000001 6.500000 -1.732051
v -0.000000 7.500000 -1.000000
v -0.500000 7.500000 -0.866025
v -0.866026 7.500000 -0.500000
v -1.000000 7.500000 0.000000
v -0.866025 7.500000 0.500000
v -0.500000 7.500000 0.866025
v -0.000000 7.500000 1.000000
v 0.500000 7.500000 0.866026
v 0.866025 7.500000 0.500000
v 1.000000 7.500000 0.000001
v 0.866026 7.500000 -0.499999
v 0.500001 7.500000 -0.866025
v -0.000000 8.500000 0.000000
v 0.000000 3.000000 -1.000000
v -0.500000 3.000000 -0.866025
v -0.866025 3.000000 -0.500000
v -1.000000 3.000000 0.000000
v -0.866025 3.000000 0.500000
v -0.500000 3.000000 0.866025
v -0.000000 3.000000 1.000000
v 0.500000 3.000000 0.866026
v 0.866025 3.000000 0.500000
v 1.000000 3.000000 0.000000
v 0.866026 3.000000 -0.499999
v 0.500001 3.000000 -0.866025
v -0.000000 0.000000 0.000000
vt 0.000000 0.000000
vt 0.000000 0.000000
vt 0.000000 0.000000
vt 0.000000 0.000000
vt 0.000000 0.000000
vt 0.000000 0.000000
vt 0.410333 0.589949
vt 0.249504 0.750777
vt 0.308372 0.531081
vt 0.000000 0.000000
vt 0.000000 0.000000
vt 0.000000 0.000000
vt 0.088676 0.911605
vt 0.190637 0.970472
vt 0.000000 0.000000
vt 0.000000 0.000000
vt 0.000000 0.000000
vt 0.469200 0.691910
vt 0.469200 0.809644
vt 0.000000 0.000000
vt 0.000000 0.000000
vt 0.000000 0.000000
vt 0.029809 0.691909
vt 0.029809 0.809644
vt 0.000000 0.000000
vt 0.000000 0.000000
vt 0.000000 0.000000
vt 0.308371 0.970472
vt 0.410332 0.911605
vt 0.088676 0.589948
vt 0.190637 0.531081
vt 0.000000 0.000000
vt 0.000000 0.000000
vt 0.000000 0.000000
vt 0.000000 0.000000
vt 0.000000 0.000000
vt 0.000000 0.000000
vt 0.282702 0.214667
vt 0.309443 0.029602
vt 0.411511 0.088892
vt 0.214886 0.216877
vt 0.029423 0.190587
vt 0.088710 0.088212
vt 0.264089 0.296131
vt 0.411275 0.411363
vt 0.308891 0.470451
vt 0.217248 0.285078
vt 0.190772 0.470451
vt 0.088419 0.411330
vt 0.295653 0.235989
vt 0.470315 0.190906
vt 0.235987 0.203678
vt 0.191253 0.029286
vt 0.029331 0.308886
vt 0.296686 0.260935
vt 0.470351 0.308980
vt 0.260825 0.202856
vt 0.203194 0.238906
vt 0.285128 0.282955
vt 0.239244 0.296864
vt 0.911148 0.588866
vt 0.823385 0.730340
vt 0.803725 0.696289
vt 0.691035 0.970113
vt 0.696303 0.803711
vt 0.730354 0.823371
vt 0.529902 0.691021
vt 0.696303 0.696289
vt 0.676643 0.730340
vt 0.970127 0.808979
vt 0.823385 0.769660
vt 0.769674 0.676629
vt 0.769674 0.823371
vt 0.529901 0.808979
vt 0.676643 0.769660
vt 0.691035 0.529887
vt 0.730354 0.676629
vt 0.803725 0.803711
vt 0.808993 0.970113
vt 0.588880 0.588866
vt 0.911148 0.911134
vt 0.811476 0.731591
vt 0.914147 0.587215
vt 0.973624 0.690907
vt 0.913778 0.913308
vt 0.812354 0.764378
vt 0.973310 0.810223
vt 0.732220 0.689618
vt 0.587148 0.586837
vt 0.690914 0.527019
vt 0.527234 0.810260
vt 0.707116 0.797039
vt 0.587129 0.913876
vt 0.810441 0.973297
vt 0.796484 0.793317
vt 0.765124 0.688426
vt 0.810653 0.527168
vt 0.688711 0.736192
vt 0.527234 0.690535
vt 0.690828 0.973562
vt 0.768843 0.811097
vt 0.794140 0.703816
vt 0.736086 0.812427
vt 0.534146 0.307839
vt 0.642076 0.221079
vt 0.642076 0.278919
vt 0.829016 0.170989
vt 0.965866 0.192159
vt 0.857936 0.221079
vt 0.692166 0.034139
vt 0.778926 0.142069
vt 0.721086 0.142069
vt 0.908026 0.408019
vt 0.778926 0.357929
vt 0.829016 0.329009
vt 0.591986 0.408019
vt 0.670996 0.329009
vt 0.807845 0.034139
vt 0.591985 0.091979
vt 0.670996 0.170989
vt 0.857936 0.278919
vt 0.692167 0.465859
vt 0.721086 0.357929
vt 0.534146 0.192160
vt 0.965866 0.307838
vt 0.684909 0.188684
vt 0.529266 0.190819
vt 0.588419 0.088366
vt 0.775771 0.335600
vt 0.911627 0.411572
vt 0.809174 0.470722
vt 0.588422 0.411573
vt 0.729505 0.337002
vt 0.690874 0.470722
vt 0.835655 0.224222
vt 0.911624 0.088366
vt 0.970777 0.190816
vt 0.724275 0.164338
vt 0.690872 0.029217
vt 0.664391 0.275716
vt 0.529269 0.309122
vt 0.837056 0.270487
vt 0.970780 0.309120
vt 0.770541 0.162937
vt 0.809172 0.029217
vt 0.662990 0.229451
vt 0.815137 0.311254
vt 0.811308 0.184856
vt 0.750023 0.249969
vt 0.688738 0.315083
vt 0.030542 0.904590
vt 0.450877 0.869562
vt 0.450877 0.904590
vt 0.030542 0.939618
vt 0.450877 0.939618
vt 0.450877 0.974646
vt 0.450877 0.589338
vt 0.030542 0.554310
vt 0.450877 0.554310
vt 0.030542 0.624366
vt 0.450877 0.624366
vt 0.450877 0.659394
vt 0.030542 0.659394
vt 0.450877 0.694422
vt 0.030542 0.694422
vt 0.450877 0.729450
vt 0.030542 0.729450
vt 0.450877 0.764478
vt 0.030542 0.764478
vt 0.450877 0.799506
vt 0.030542 0.799506
vt 0.030542 0.834534
vt 0.450877 0.834534
vt 0.030542 0.869562
vt 0.235430 0.304369
vt 0.308278 0.467494
vt 0.191721 0.467494
vt 0.090779 0.409215
vt 0.210195 0.289800
vt 0.195625 0.264564
vt 0.032501 0.308273
vt 0.032501 0.191716
vt 0.195625 0.235425
vt 0.090780 0.090774
vt 0.210195 0.210190
vt 0.191721 0.032496
vt 0.235430 0.195620
vt 0.308279 0.032496
vt 0.264570 0.195620
vt 0.409220 0.090775
vt 0.289805 0.210190
vt 0.467499 0.191716
vt 0.304375 0.235425
vt 0.467499 0.308274
vt 0.304375 0.264564
vt 0.409220 0.409215
vt 0.289805 0.289800
vt 0.264569 0.304369
vt 0.204055 0.263866
vt 0.970127 0.691021
vt 0.588880 0.911134
vt 0.808993 0.529887
vt 0.704251 0.707095
vt 0.689763 0.769120
vt 0.908027 0.091978
vt 0.807846 0.465859
vt 0.030542 0.974646
vt 0.030542 0.589338
vn 0.0000 0.0000 1.0000
vn 0.0000 -1.0000 0.0000
vn 0.4017 0.8230 0.4017
vn -0.4017 0.8230 0.4017
vn 0.1470 0.8230 -0.5487
vn -0.4017 0.8230 -0.4017
vn 0.5487 0.8230 0.1470
vn -0.1470 0.8230 0.5487
vn -0.5487 0.8230 -0.1470
vn 0.5487 0.8230 -0.1470
vn 0.1470 0.8230 0.5487
vn -0.5487 0.8230 0.1470
vn 0.4017 0.8230 -0.4017
vn -0.1470 0.8230 -0.5487
vn 0.4337 0.7899 -0.4337
vn -0.1587 0.7899 -0.5924
vn 0.4337 0.7899 0.4337
vn -0.4337 0.7899 0.4337
vn 0.1587 0.7899 -0.5924
vn -0.4337 0.7899 -0.4337
vn 0.5924 0.7899 0.1587
vn -0.1587 0.7899 0.5924
vn -0.5924 0.7899 -0.1587
vn 0.5924 0.7899 -0.1587
vn 0.1587 0.7899 0.5924
vn -0.5924 0.7899 0.1587
vn -0.6947 0.6947 0.1862
vn 0.5086 0.6947 -0.5086
vn -0.1862 0.6947 -0.6947
vn 0.5086 0.6947 0.5086
vn -0.5086 0.6947 0.5086
vn 0.1862 0.6947 -0.6947
vn -0.5086 0.6947 -0.5086
vn 0.6947 0.6947 0.1862
vn -0.1862 0.6947 0.6947
vn -0.6947 0.6947 -0.1862
vn 0.6947 0.6947 -0.1862
vn 0.1862 0.6947 0.6947
vn -0.9659 0.0000 -0.2588
vn -0.7071 0.0000 -0.7071
vn -0.2588 0.0000 -0.9659
vn 0.2588 0.0000 -0.9659
vn 0.7071 0.0000 -0.7071
vn 0.9659 0.0000 -0.2588
vn 0.9659 0.0000 0.2588
vn 0.7071 0.0000 0.7071
vn 0.2588 0.0000 0.9659
vn -0.2588 0.0000 0.9659
vn -0.7071 0.0000 0.7071
vn -0.9659 0.0000 0.2588
s off
f 16/1/1 102/2/1 17/3/1
f 22/4/1 108/5/1 23/6/1
f 10/7/2 110/8/2 11/9/2
f 18/10/1 104/11/1 19/12/1
f 4/13/2 110/8/2 5/14/2
f 24/15/1 98/16/1 13/17/1
f 9/18/2 8/19/2 110/8/2
f 20/20/1 106/21/1 21/22/1
f 2/23/2 110/8/2 3/24/2
f 14/25/1 100/26/1 15/27/1
f 6/28/2 110/8/2 7/29/2
f 110/8/2 1/30/2 12/31/2
f 9/18/2 110/8/2 10/7/2
f 19/12/1 105/32/1 20/20/1
f 3/24/2 110/8/2 4/13/2
f 13/17/1 99/33/1 14/25/1
f 8/19/2 7/29/2 110/8/2
f 110/8/2 2/23/2 1/30/2
f 15/27/1 101/34/1 16/1/1
f 21/22/1 107/35/1 22/4/1
f 11/9/2 110/8/2 12/31/2
f 17/3/1 103/36/1 18/10/1
f 110/8/2 6/28/2 5/14/2
f 23/6/1 109/37/1 24/15/1
f 45/38/3 32/39/3 33/40/3
f 42/41/4 29/42/4 30/43/4
f 37/44/5 36/45/5 25/46/5
f 39/47/6 26/48/6 27/49/6
f 46/50/7 33/40/7 34/51/7
f 43/52/8 30/43/8 31/53/8
f 28/54/9 39/47/9 27/49/9
f 47/55/10 34/51/10 35/56/10
f 44/57/11 31/53/11 32/39/11
f 41/58/12 28/54/12 29/42/12
f 48/59/13 35/56/13 36/45/13
f 38/60/14 25/46/14 26/48/14
f 50/61/2 37/62/2 38/63/2
f 57/64/2 44/65/2 45/66/2
f 54/67/2 41/68/2 42/69/2
f 37/62/2 60/70/2 48/71/2
f 39/72/2 50/61/2 38/63/2
f 46/73/2 57/64/2 45/66/2
f 55/74/2 42/69/2 43/75/2
f 52/76/2 39/72/2 40/77/2
f 47/78/2 58/79/2 46/73/2
f 44/65/2 55/74/2 43/75/2
f 53/80/2 40/77/2 41/68/2
f 48/71/2 59/81/2 47/78/2
f 72/82/15 59/83/15 60/84/15
f 50/85/16 61/86/16 49/87/16
f 69/88/17 56/89/17 57/90/17
f 54/91/18 65/92/18 53/93/18
f 61/86/19 60/84/19 49/87/19
f 51/94/20 62/95/20 50/85/20
f 70/96/21 57/90/21 58/97/21
f 67/98/22 54/91/22 55/99/22
f 52/100/23 63/101/23 51/94/23
f 71/102/24 58/97/24 59/83/24
f 56/89/25 67/98/25 55/99/25
f 53/93/26 64/103/26 52/100/26
f 77/104/2 64/105/2 65/106/2
f 72/107/2 83/108/2 71/109/2
f 74/110/2 61/111/2 62/112/2
f 81/113/2 68/114/2 69/115/2
f 78/116/2 65/106/2 66/117/2
f 73/118/2 72/107/2 61/111/2
f 75/119/2 62/112/2 63/120/2
f 70/121/2 81/113/2 69/115/2
f 79/122/2 66/117/2 67/123/2
f 76/124/2 63/120/2 64/105/2
f 71/109/2 82/125/2 70/121/2
f 68/114/2 79/122/2 67/123/2
f 89/126/27 76/127/27 77/128/27
f 96/129/28 83/130/28 84/131/28
f 74/132/29 85/133/29 73/134/29
f 93/135/30 80/136/30 81/137/30
f 90/138/31 77/128/31 78/139/31
f 85/133/32 84/131/32 73/134/32
f 87/140/33 74/132/33 75/141/33
f 94/142/34 81/137/34 82/143/34
f 91/144/35 78/139/35 79/145/35
f 88/146/36 75/141/36 76/127/36
f 95/147/37 82/143/37 83/130/37
f 92/148/38 79/145/38 80/136/38
f 90/138/35 91/144/35 97/149/35
f 89/126/31 90/138/31 97/149/31
f 88/146/27 89/126/27 97/149/27
f 87/140/36 88/146/36 97/149/36
f 86/150/33 87/140/33 97/149/33
f 85/133/29 86/150/29 97/149/29
f 96/129/32 85/133/32 97/149/32
f 95/147/28 96/129/28 97/149/28
f 94/142/37 95/147/37 97/149/37
f 93/135/34 94/142/34 97/149/34
f 92/148/30 93/135/30 97/149/30
f 91/144/38 92/148/38 97/149/38
f 3/151/39 101/152/39 100/153/39
f 2/154/40 100/153/40 99/155/40
f 98/156/41 2/154/41 99/155/41
f 109/157/42 1/158/42 98/159/42
f 11/160/43 109/157/43 108/161/43
f 11/160/44 107/162/44 10/163/44
f 10/163/45 106/164/45 9/165/45
f 9/165/46 105/166/46 8/167/46
f 8/167/47 104/168/47 7/169/47
f 7/169/48 103/170/48 6/171/48
f 5/172/49 103/170/49 102/173/49
f 4/174/50 102/173/50 101/152/50
f 18/175/2 31/176/2 30/177/2
f 18/175/2 29/178/2 17/179/2
f 16/180/2 29/178/2 28/181/2
f 16/180/2 27/182/2 15/183/2
f 15/183/2 26/184/2 14/185/2
f 14/185/2 25/186/2 13/187/2
f 13/187/2 36/188/2 24/189/2
f 24/189/2 35/190/2 23/191/2
f 23/191/2 34/192/2 22/193/2
f 22/193/2 33/194/2 21/195/2
f 21/195/2 32/196/2 20/197/2
f 19/198/2 32/196/2 31/176/2
f 16/1/1 101/34/1 102/2/1
f 22/4/1 107/35/1 108/5/1
f 18/10/1 103/36/1 104/11/1
f 24/15/1 109/37/1 98/16/1
f 20/20/1 105/32/1 106/21/1
f 14/25/1 99/33/1 100/26/1
f 19/12/1 104/11/1 105/32/1
f 13/17/1 98/16/1 99/33/1
f 15/27/1 100/26/1 101/34/1
f 21/22/1 106/21/1 107/35/1
f 17/3/1 102/2/1 103/36/1
f 23/6/1 108/5/1 109/37/1
f 45/38/3 44/57/3 32/39/3
f 42/41/4 41/58/4 29/42/4
f 37/44/5 48/59/5 36/45/5
f 39/47/6 38/60/6 26/48/6
f 46/50/7 45/38/7 33/40/7
f 43/52/8 42/41/8 30/43/8
f 28/54/9 40/199/9 39/47/9
f 47/55/10 46/50/10 34/51/10
f 44/57/11 43/52/11 31/53/11
f 41/58/12 40/199/12 28/54/12
f 48/59/13 47/55/13 35/56/13
f 38/60/14 37/44/14 25/46/14
f 50/61/2 49/200/2 37/62/2
f 57/64/2 56/201/2 44/65/2
f 54/67/2 53/80/2 41/68/2
f 37/62/2 49/200/2 60/70/2
f 39/72/2 51/202/2 50/61/2
f 46/73/2 58/79/2 57/64/2
f 55/74/2 54/67/2 42/69/2
f 52/76/2 51/202/2 39/72/2
f 47/78/2 59/81/2 58/79/2
f 44/65/2 56/201/2 55/74/2
f 53/80/2 52/76/2 40/77/2
f 48/71/2 60/70/2 59/81/2
f 72/82/15 71/102/15 59/83/15
f 50/85/16 62/95/16 61/86/16
f 69/88/17 68/203/17 56/89/17
f 54/91/18 66/204/18 65/92/18
f 61/86/19 72/82/19 60/84/19
f 51/94/20 63/101/20 62/95/20
f 70/96/21 69/88/21 57/90/21
f 67/98/22 66/204/22 54/91/22
f 52/100/23 64/103/23 63/101/23
f 71/102/24 70/96/24 58/97/24
f 56/89/25 68/203/25 67/98/25
f 53/93/26 65/92/26 64/103/26
f 77/104/2 76/124/2 64/105/2
f 72/107/2 84/205/2 83/108/2
f 74/110/2 73/118/2 61/111/2
f 81/113/2 80/206/2 68/114/2
f 78/116/2 77/104/2 65/106/2
f 73/118/2 84/205/2 72/107/2
f 75/119/2 74/110/2 62/112/2
f 70/121/2 82/125/2 81/113/2
f 79/122/2 78/116/2 66/117/2
f 76/124/2 75/119/2 63/120/2
f 71/109/2 83/108/2 82/125/2
f 68/114/2 80/206/2 79/122/2
f 89/126/27 88/146/27 76/127/27
f 96/129/28 95/147/28 83/130/28
f 74/132/29 86/150/29 85/133/29
f 93/135/30 92/148/30 80/136/30
f 90/138/31 89/126/31 77/128/31
f 85/133/32 96/129/32 84/131/32
f 87/140/33 86/150/33 74/132/33
f 94/142/34 93/135/34 81/137/34
f 91/144/35 90/138/35 78/139/35
f 88/146/36 87/140/36 75/141/36
f 95/147/37 94/142/37 82/143/37
f 92/148/38 91/144/38 79/145/38
f 3/151/39 4/174/39 101/152/39
f 2/154/40 3/151/40 100/153/40
f 98/156/41 1/207/41 2/154/41
f 109/157/42 12/208/42 1/158/42
f 11/160/43 12/208/43 109/157/43
f 11/160/44 108/161/44 107/162/44
f 10/163/45 107/162/45 106/164/45
f 9/165/46 106/164/46 105/166/46
f 8/167/47 105/166/47 104/168/47
f 7/169/48 104/168/48 103/170/48
f 5/172/49 6/171/49 103/170/49
f 4/174/50 5/172/50 102/173/50
f 18/175/2 19/198/2 31/176/2
f 18/175/2 30/177/2 29/178/2
f 16/180/2 17/179/2 29/178/2
f 16/180/2 28/181/2 27/182/2
f 15/183/2 27/182/2 26/184/2
f 14/185/2 26/184/2 25/186/2
f 13/187/2 25/186/2 36/188/2
f 24/189/2 36/188/2 35/190/2
f 23/191/2 35/190/2 34/192/2
f 22/193/2 34/192/2 33/194/2
f 21/195/2 33/194/2 32/196/2
f 19/198/2 20/197/2 32/196/2
